<svg xmlns="http://www.w3.org/2000/svg" height="40" viewBox="0 -960 960 960" width="40"><path d="M320-193.384q-119.66 0-203.138-83.488-83.478-83.489-83.478-203.164 0-119.674 83.478-203.127T320-766.616h320q119.66 0 203.138 83.488 83.478 83.489 83.478 203.164 0 119.674-83.478 203.127T640-193.384H320Zm0-75.913h320q87.442 0 149.073-61.581 61.63-61.581 61.63-148.953t-61.63-149.122q-61.631-61.75-149.073-61.75H320q-87.442 0-149.073 61.581-61.63 61.581-61.63 148.953t61.63 149.122q61.631 61.75 149.073 61.75Zm11.326-96.015h54.638v-87.369h87.369v-54.638h-87.369v-87.369h-54.638v87.369h-87.369v54.638h87.369v87.369Zm291.355 0h54.638v-229.376H562.681v54.637h60v174.739ZM480-480Z"/></svg>